<svg width="18" height="18" viewBox="0 0 18 18" fill="none" xmlns="http://www.w3.org/2000/svg">
<path fill-rule="evenodd" clip-rule="evenodd" d="M3.32031 0.53125C1.66346 0.53125 0.320312 1.8744 0.320312 3.53125V14.5312C0.320312 16.1881 1.66346 17.5312 3.32031 17.5312H14.3203C15.9772 17.5312 17.3203 16.1881 17.3203 14.5312V3.53125C17.3203 1.8744 15.9772 0.53125 14.3203 0.53125H3.32031ZM13.9362 5.46873C14.1023 5.24813 14.0582 4.93464 13.8376 4.76854C13.617 4.60243 13.3035 4.64661 13.1374 4.86721L7.67406 12.1229L4.4618 8.8596C4.26808 8.6628 3.95151 8.6603 3.75472 8.85402C3.55792 9.04773 3.55542 9.36431 3.74914 9.5611L7.2869 13.1551C7.54406 13.4164 7.97331 13.388 8.19382 13.0951L13.9362 5.46873Z" fill="url(#paint0_linear_301_1548)"/>
<path fill-rule="evenodd" clip-rule="evenodd" d="M3.32031 0.53125C1.66346 0.53125 0.320312 1.8744 0.320312 3.53125V14.5312C0.320312 16.1881 1.66346 17.5312 3.32031 17.5312H14.3203C15.9772 17.5312 17.3203 16.1881 17.3203 14.5312V3.53125C17.3203 1.8744 15.9772 0.53125 14.3203 0.53125H3.32031ZM13.9362 5.46873C14.1023 5.24813 14.0582 4.93464 13.8376 4.76854C13.617 4.60243 13.3035 4.64661 13.1374 4.86721L7.67406 12.1229L4.4618 8.8596C4.26808 8.6628 3.95151 8.6603 3.75472 8.85402C3.55792 9.04773 3.55542 9.36431 3.74914 9.5611L7.2869 13.1551C7.54406 13.4164 7.97331 13.388 8.19382 13.0951L13.9362 5.46873Z" fill="#546CED"/>
<defs>
<linearGradient id="paint0_linear_301_1548" x1="0.320313" y1="17.5313" x2="17.3203" y2="0.53125" gradientUnits="userSpaceOnUse">
<stop stop-color="#546CED"/>
<stop offset="1" stop-color="#D854ED"/>
</linearGradient>
</defs>
</svg>
