<svg width="31" height="31" viewBox="0 0 31 31" fill="none" xmlns="http://www.w3.org/2000/svg">
<path fill-rule="evenodd" clip-rule="evenodd" d="M30.7344 15.0859C30.7344 23.3704 24.0189 30.0859 15.7344 30.0859C13.3344 30.0859 11.0664 29.5219 9.05639 28.5199C8.52543 28.2455 7.9125 28.1746 7.33289 28.3204L3.99389 29.2144C3.6634 29.3026 3.31552 29.3023 2.98518 29.2136C2.65484 29.1248 2.35366 28.9507 2.11186 28.7088C1.87007 28.4668 1.69617 28.1655 1.60763 27.8351C1.51908 27.5047 1.519 27.1569 1.60739 26.8264L2.49989 23.4874C2.64506 22.9081 2.57358 22.2957 2.29889 21.7654C1.26634 19.6904 0.730722 17.4036 0.734394 15.0859C0.734394 6.80143 7.44989 0.0859375 15.7344 0.0859375C24.0189 0.0859375 30.7344 6.80143 30.7344 15.0859ZM15.7344 7.96093C16.0328 7.96093 16.3189 8.07946 16.5299 8.29044C16.7409 8.50142 16.8594 8.78756 16.8594 9.08593V9.10093C18.4929 9.51343 19.8594 10.8004 19.8594 12.5854C19.8594 12.8838 19.7409 13.1699 19.5299 13.3809C19.3189 13.5919 19.0328 13.7104 18.7344 13.7104C18.436 13.7104 18.1499 13.5919 17.9389 13.3809C17.7279 13.1699 17.6094 12.8838 17.6094 12.5854C17.6094 12.0094 16.9704 11.2114 15.7344 11.2114C14.4984 11.2114 13.8594 12.0094 13.8594 12.5854C13.8594 13.1614 14.4984 13.9609 15.7344 13.9609C17.8119 13.9609 19.8594 15.4009 19.8594 17.5864C19.8594 19.3714 18.4929 20.6599 16.8594 21.0709V21.0859C16.8594 21.3843 16.7409 21.6704 16.5299 21.8814C16.3189 22.0924 16.0328 22.2109 15.7344 22.2109C15.436 22.2109 15.1499 22.0924 14.9389 21.8814C14.7279 21.6704 14.6094 21.3843 14.6094 21.0859V21.0709C12.9759 20.6599 11.6094 19.3714 11.6094 17.5864C11.6094 17.2881 11.7279 17.0019 11.9389 16.7909C12.1499 16.58 12.436 16.4614 12.7344 16.4614C13.0328 16.4614 13.3189 16.58 13.5299 16.7909C13.7409 17.0019 13.8594 17.2881 13.8594 17.5864C13.8594 18.1624 14.4984 18.9604 15.7344 18.9604C16.9704 18.9604 17.6094 18.1624 17.6094 17.5864C17.6094 17.0104 16.9704 16.2109 15.7344 16.2109C13.6569 16.2109 11.6094 14.7709 11.6094 12.5854C11.6094 10.8004 12.9759 9.51343 14.6094 9.10093V9.08593C14.6094 8.78756 14.7279 8.50142 14.9389 8.29044C15.1499 8.07946 15.436 7.96093 15.7344 7.96093Z" fill="#546CED"/>
</svg>
