<svg width="27" height="27" viewBox="0 0 27 27" fill="none" xmlns="http://www.w3.org/2000/svg">
<path d="M13.3486 9.4695C10.9585 9.4695 9.0317 11.4149 9.0317 13.7864C9.0317 16.1579 10.9771 18.1033 13.3486 18.1033C15.7201 18.1033 17.6655 16.1579 17.6655 13.7864C17.6655 11.4149 15.7201 9.4695 13.3486 9.4695ZM26.3178 13.7864C26.3178 11.9892 26.3178 10.2291 26.2251 8.43197C26.1325 6.3569 25.6508 4.50415 24.1315 3.00343C22.6123 1.48419 20.7781 1.00247 18.703 0.909837C16.9058 0.8172 15.1457 0.8172 13.3486 0.8172C11.5514 0.8172 9.79132 0.8172 7.99416 0.909837C5.91909 1.00247 4.06635 1.48419 2.56563 3.00343C1.04638 4.52268 0.564669 6.3569 0.472032 8.43197C0.379394 10.2291 0.379395 11.9892 0.379395 13.7864C0.379395 15.5835 0.379394 17.3437 0.472032 19.1408C0.564669 21.2159 1.04638 23.0686 2.56563 24.5693C4.08488 26.0886 5.91909 26.5703 7.99416 26.6629C9.79132 26.7556 11.5514 26.7556 13.3486 26.7556C15.1457 26.7556 16.9058 26.7556 18.703 26.6629C20.7781 26.5703 22.6308 26.0886 24.1315 24.5693C25.6508 23.0501 26.1325 21.2159 26.2251 19.1408C26.3363 17.3622 26.3178 15.5835 26.3178 13.7864ZM13.3486 20.4377C9.66163 20.4377 6.69724 17.4733 6.69724 13.7864C6.69724 10.0994 9.66163 7.13505 13.3486 7.13505C17.0355 7.13505 19.9999 10.0994 19.9999 13.7864C19.9999 17.4733 17.0355 20.4377 13.3486 20.4377ZM20.2778 8.41344C19.4256 8.41344 18.7215 7.72792 18.7215 6.85714C18.7215 5.98635 19.407 5.30083 20.2778 5.30083C21.1486 5.30083 21.8341 5.98635 21.8341 6.85714C21.8388 7.06008 21.8018 7.26182 21.7253 7.44986C21.6488 7.63789 21.5345 7.80821 21.3895 7.95025C21.2474 8.09528 21.0771 8.20957 20.8891 8.28606C20.701 8.36255 20.4993 8.3996 20.2964 8.39491L20.2778 8.41344Z" fill="white"/>
</svg>
