<svg width="27" height="27" viewBox="0 0 27 27" fill="none" xmlns="http://www.w3.org/2000/svg">
<path d="M13.6176 9.00777C11.2276 9.00777 9.30074 10.9531 9.30074 13.3247C9.30074 15.6962 11.2461 17.6415 13.6176 17.6415C15.9891 17.6415 17.9345 15.6962 17.9345 13.3247C17.9345 10.9531 15.9891 9.00777 13.6176 9.00777ZM26.5868 13.3247C26.5868 11.5275 26.5868 9.76739 26.4942 7.97024C26.4015 5.89517 25.9198 4.04242 24.4006 2.5417C22.8813 1.02246 21.0471 0.540743 18.972 0.448106C17.1749 0.355469 15.4148 0.355469 13.6176 0.355469C11.8205 0.355469 10.0604 0.355469 8.2632 0.448106C6.18813 0.540743 4.33539 1.02246 2.83467 2.5417C1.31542 4.06095 0.833712 5.89517 0.741074 7.97024C0.648437 9.76739 0.648438 11.5275 0.648438 13.3247C0.648438 15.1218 0.648437 16.8819 0.741074 18.6791C0.833712 20.7542 1.31542 22.6069 2.83467 24.1076C4.35392 25.6269 6.18813 26.1086 8.2632 26.2012C10.0604 26.2938 11.8205 26.2938 13.6176 26.2938C15.4148 26.2938 17.1749 26.2938 18.972 26.2012C21.0471 26.1086 22.8999 25.6269 24.4006 24.1076C25.9198 22.5884 26.4015 20.7542 26.4942 18.6791C26.6053 16.9004 26.5868 15.1218 26.5868 13.3247ZM13.6176 19.976C9.93067 19.976 6.96628 17.0116 6.96628 13.3247C6.96628 9.6377 9.93067 6.67332 13.6176 6.67332C17.3046 6.67332 20.269 9.6377 20.269 13.3247C20.269 17.0116 17.3046 19.976 13.6176 19.976ZM20.5469 7.95171C19.6946 7.95171 18.9906 7.26619 18.9906 6.39541C18.9906 5.52462 19.6761 4.8391 20.5469 4.8391C21.4177 4.8391 22.1032 5.52462 22.1032 6.39541C22.1079 6.59835 22.0708 6.80009 21.9943 6.98812C21.9178 7.17616 21.8035 7.34648 21.6585 7.48852C21.5165 7.63354 21.3462 7.74784 21.1581 7.82433C20.9701 7.90082 20.7683 7.93787 20.5654 7.93318L20.5469 7.95171Z" fill="#2C2C2C"/>
</svg>
