<svg width="31" height="32" viewBox="0 0 31 32" fill="none" xmlns="http://www.w3.org/2000/svg">
<path d="M13.6041 13.6379C17.1695 13.6379 20.0598 10.7476 20.0598 7.18222C20.0598 3.61686 17.1695 0.726562 13.6041 0.726562C10.0387 0.726562 7.14844 3.61686 7.14844 7.18222C7.14844 10.7476 10.0387 13.6379 13.6041 13.6379Z" fill="#546CED"/>
<path d="M11.7471 27.4375V30.4355C11.7471 30.7005 11.8524 30.9547 12.0398 31.1421C12.2272 31.3295 12.4814 31.4348 12.7465 31.4348H29.735C30.0001 31.4348 30.2543 31.3295 30.4417 31.1421C30.6291 30.9547 30.7344 30.7005 30.7344 30.4355V20.4422C30.7344 20.1771 30.6291 19.923 30.4417 19.7356C30.2543 19.5481 30.0001 19.4429 29.735 19.4429H22.7397V17.9738C22.7397 17.7088 22.6345 17.4546 22.4471 17.2672C22.2596 17.0798 22.0055 16.9745 21.7404 16.9745C21.4754 16.9745 21.2212 17.0798 21.0338 17.2672C20.8464 17.4546 20.7411 17.7088 20.7411 17.9738V19.4429H18.7424V15.8653C17.0443 15.5874 15.3266 15.447 13.6059 15.4455C9.81124 15.4294 6.05911 16.2446 2.61328 17.8339C2.04615 18.1016 1.56769 18.5263 1.23469 19.0577C0.901682 19.5891 0.728103 20.2048 0.734548 20.8319V27.4375H11.7471ZM28.7357 29.4361H13.7458V21.4415H20.7411V21.8612C20.7411 22.1263 20.8464 22.3805 21.0338 22.5679C21.2212 22.7553 21.4754 22.8606 21.7404 22.8606C22.0055 22.8606 22.2596 22.7553 22.4471 22.5679C22.6345 22.3805 22.7397 22.1263 22.7397 21.8612V21.4415H28.7357V29.4361Z" fill="#546CED"/>
</svg>
