<svg width="177" height="32" viewBox="0 0 177 32" fill="none" xmlns="http://www.w3.org/2000/svg">
<path d="M169.496 25.019L164.562 13.5469H166.958L170.622 22.5282H169.855L173.711 13.5469H176.106L170.79 25.019H169.496ZM166.239 29.6893L169.592 22.8156L170.79 25.019L168.634 29.6893H166.239Z" fill="white"/>
<path d="M160.445 24.9207V7.82031H162.601V24.9207H160.445Z" fill="white"/>
<path d="M152.495 25.16C151.633 25.16 150.851 24.9844 150.148 24.6331C149.462 24.2659 148.911 23.7629 148.496 23.1243C148.081 22.4856 147.849 21.7591 147.801 20.9448V17.5199C147.849 16.6896 148.081 15.9632 148.496 15.3405C148.927 14.7018 149.486 14.2068 150.172 13.8555C150.875 13.4883 151.649 13.3047 152.495 13.3047C153.533 13.3047 154.467 13.5681 155.298 14.095C156.144 14.6219 156.806 15.3325 157.285 16.2266C157.764 17.1207 158.004 18.1267 158.004 19.2443C158.004 20.362 157.764 21.3679 157.285 22.262C156.806 23.1562 156.144 23.8667 155.298 24.3936C154.467 24.9045 153.533 25.16 152.495 25.16ZM152.136 23.1243C152.855 23.1243 153.485 22.9566 154.028 22.6213C154.571 22.286 155.002 21.8309 155.321 21.2561C155.641 20.6654 155.8 19.9868 155.8 19.2204C155.8 18.4699 155.641 17.7993 155.321 17.2086C155.002 16.6178 154.571 16.1627 154.028 15.8434C153.485 15.5081 152.863 15.3405 152.16 15.3405C151.442 15.3405 150.811 15.5081 150.268 15.8434C149.725 16.1627 149.302 16.6178 148.999 17.2086C148.695 17.7993 148.544 18.4779 148.544 19.2443C148.544 19.9948 148.687 20.6654 148.975 21.2561C149.278 21.8309 149.701 22.286 150.244 22.6213C150.803 22.9566 151.434 23.1243 152.136 23.1243ZM146.508 29.6866V13.5442H148.663V16.538L148.256 19.2922L148.663 22.0704V29.6866H146.508Z" fill="white"/>
<path d="M138.558 25.16C137.696 25.16 136.913 24.9844 136.211 24.6331C135.524 24.2659 134.973 23.7629 134.558 23.1243C134.143 22.4856 133.912 21.7591 133.864 20.9448V17.5199C133.912 16.6896 134.143 15.9632 134.558 15.3405C134.989 14.7018 135.548 14.2068 136.235 13.8555C136.937 13.4883 137.712 13.3047 138.558 13.3047C139.596 13.3047 140.53 13.5681 141.36 14.095C142.206 14.6219 142.869 15.3325 143.348 16.2266C143.827 17.1207 144.066 18.1267 144.066 19.2443C144.066 20.362 143.827 21.3679 143.348 22.262C142.869 23.1562 142.206 23.8667 141.36 24.3936C140.53 24.9045 139.596 25.16 138.558 25.16ZM138.199 23.1243C138.917 23.1243 139.548 22.9566 140.091 22.6213C140.634 22.286 141.065 21.8309 141.384 21.2561C141.703 20.6654 141.863 19.9868 141.863 19.2204C141.863 18.4699 141.703 17.7993 141.384 17.2086C141.065 16.6178 140.634 16.1627 140.091 15.8434C139.548 15.5081 138.925 15.3405 138.223 15.3405C137.504 15.3405 136.873 15.5081 136.33 15.8434C135.788 16.1627 135.364 16.6178 135.061 17.2086C134.758 17.7993 134.606 18.4779 134.606 19.2443C134.606 19.9948 134.75 20.6654 135.037 21.2561C135.341 21.8309 135.764 22.286 136.307 22.6213C136.865 22.9566 137.496 23.1243 138.199 23.1243ZM132.57 29.6866V13.5442H134.726V16.538L134.319 19.2922L134.726 22.0704V29.6866H132.57Z" fill="white"/>
<path d="M124.792 25.1627C123.865 25.1627 123.027 24.9551 122.277 24.54C121.542 24.1089 120.968 23.5181 120.552 22.7677C120.137 22.0172 119.93 21.1471 119.93 20.1571V13.5469H122.085V20.0613C122.085 20.684 122.189 21.2269 122.397 21.6899C122.62 22.137 122.939 22.4803 123.355 22.7198C123.77 22.9593 124.257 23.079 124.816 23.079C125.662 23.079 126.324 22.8156 126.803 22.2887C127.282 21.7458 127.522 21.0034 127.522 20.0613V13.5469H129.677V20.1571C129.677 21.1471 129.47 22.0172 129.055 22.7677C128.64 23.5181 128.065 24.1089 127.33 24.54C126.612 24.9551 125.766 25.1627 124.792 25.1627Z" fill="white"/>
<path d="M111.945 25.1629C110.636 25.1629 109.518 24.9234 108.592 24.4444C107.666 23.9654 106.844 23.2708 106.125 22.3607L107.658 20.8279C108.185 21.5624 108.791 22.1212 109.478 22.5044C110.165 22.8717 111.011 23.0553 112.017 23.0553C113.007 23.0553 113.797 22.8397 114.388 22.4086C114.995 21.9775 115.298 21.3868 115.298 20.6363C115.298 20.0136 115.154 19.5107 114.867 19.1275C114.579 18.7443 114.188 18.4329 113.693 18.1934C113.214 17.9379 112.687 17.7144 112.113 17.5228C111.538 17.3152 110.963 17.0997 110.388 16.8762C109.813 16.6367 109.286 16.3493 108.807 16.014C108.328 15.6627 107.937 15.2076 107.634 14.6488C107.346 14.09 107.203 13.3874 107.203 12.5412C107.203 11.5991 107.426 10.8008 107.873 10.1462C108.336 9.47556 108.959 8.96462 109.741 8.61335C110.54 8.24612 111.434 8.0625 112.424 8.0625C113.51 8.0625 114.484 8.27805 115.346 8.70915C116.208 9.12429 116.911 9.67514 117.453 10.3617L115.921 11.8945C115.426 11.3197 114.891 10.8886 114.316 10.6012C113.757 10.3138 113.11 10.1701 112.376 10.1701C111.482 10.1701 110.771 10.3697 110.244 10.7689C109.718 11.1521 109.454 11.6949 109.454 12.3975C109.454 12.9563 109.598 13.4114 109.885 13.7626C110.189 14.0979 110.58 14.3853 111.059 14.6248C111.538 14.8643 112.065 15.0879 112.639 15.2954C113.23 15.487 113.813 15.7026 114.388 15.9421C114.963 16.1816 115.49 16.485 115.969 16.8522C116.448 17.2194 116.831 17.6984 117.118 18.2892C117.421 18.864 117.573 19.5905 117.573 20.4687C117.573 21.9376 117.062 23.0872 116.04 23.9175C115.034 24.7478 113.669 25.1629 111.945 25.1629Z" fill="white"/>
<path d="M94.8803 24.9158V8.77344H97.0358V24.9158H94.8803ZM92.0781 15.5034V13.5395H99.838V15.5034H92.0781Z" fill="white"/>
<path d="M88.2035 24.9205V18.2863C88.2035 17.4241 87.9321 16.7136 87.3892 16.1548C86.8463 15.5959 86.1438 15.3165 85.2816 15.3165C84.7068 15.3165 84.1958 15.4442 83.7488 15.6997C83.3017 15.9552 82.9504 16.3064 82.695 16.7535C82.4395 17.2006 82.3118 17.7115 82.3118 18.2863L81.4256 17.7834C81.4256 16.9212 81.6172 16.1548 82.0004 15.4842C82.3836 14.8135 82.9185 14.2866 83.6051 13.9034C84.2916 13.5043 85.066 13.3047 85.9282 13.3047C86.7904 13.3047 87.5489 13.5202 88.2035 13.9513C88.8741 14.3824 89.401 14.9493 89.7842 15.6518C90.1674 16.3384 90.359 17.0728 90.359 17.8552V24.9205H88.2035ZM80.1562 24.9205V13.5442H82.3118V24.9205H80.1562Z" fill="white"/>
<path d="M72.5818 25.16C71.4482 25.16 70.4263 24.9045 69.5162 24.3936C68.6061 23.8667 67.8876 23.1562 67.3607 22.262C66.8338 21.3679 66.5703 20.354 66.5703 19.2204C66.5703 18.1027 66.8258 17.0968 67.3367 16.2027C67.8636 15.3085 68.5662 14.606 69.4443 14.095C70.3385 13.5681 71.3364 13.3047 72.4381 13.3047C73.4919 13.3047 74.418 13.5442 75.2163 14.0232C76.0306 14.5022 76.6613 15.1648 77.1084 16.0111C77.5714 16.8573 77.8029 17.8153 77.8029 18.8851C77.8029 19.0447 77.795 19.2204 77.779 19.412C77.763 19.5876 77.7311 19.7952 77.6832 20.0347H68.0792V18.2384H76.5336L75.7432 18.933C75.7432 18.1666 75.6075 17.5199 75.3361 16.993C75.0646 16.4501 74.6814 16.035 74.1865 15.7476C73.6915 15.4442 73.0927 15.2926 72.3902 15.2926C71.6557 15.2926 71.0091 15.4522 70.4502 15.7716C69.8914 16.0909 69.4603 16.538 69.1569 17.1128C68.8536 17.6876 68.7019 18.3662 68.7019 19.1485C68.7019 19.9469 68.8615 20.6494 69.1809 21.2561C69.5002 21.8469 69.9553 22.3099 70.546 22.6452C71.1368 22.9646 71.8154 23.1243 72.5818 23.1243C73.2205 23.1243 73.8033 23.0125 74.3302 22.7889C74.873 22.5654 75.3361 22.2301 75.7193 21.783L77.1084 23.1961C76.5655 23.8348 75.8949 24.3218 75.0966 24.6571C74.3142 24.9924 73.4759 25.16 72.5818 25.16Z" fill="white"/>
<path d="M62 24.9207V7.82031H64.1555V24.9207H62Z" fill="white"/>
<path d="M52.9002 25.16C51.8623 25.16 50.9203 24.9045 50.0741 24.3936C49.2278 23.8667 48.5572 23.1562 48.0623 22.262C47.5833 21.3679 47.3438 20.362 47.3438 19.2443C47.3438 18.1267 47.5833 17.1207 48.0623 16.2266C48.5572 15.3325 49.2198 14.6219 50.0501 14.095C50.8964 13.5681 51.8464 13.3047 52.9002 13.3047C53.7624 13.3047 54.5288 13.4883 55.1994 13.8555C55.886 14.2068 56.4368 14.7018 56.852 15.3405C57.2671 15.9632 57.4986 16.6896 57.5465 17.5199V20.9448C57.4986 21.7591 57.2671 22.4856 56.852 23.1243C56.4528 23.7629 55.9099 24.2659 55.2233 24.6331C54.5527 24.9844 53.7784 25.16 52.9002 25.16ZM53.2594 23.1243C54.3292 23.1243 55.1914 22.765 55.8461 22.0465C56.5007 21.312 56.828 20.378 56.828 19.2443C56.828 18.462 56.6763 17.7834 56.373 17.2086C56.0856 16.6178 55.6704 16.1627 55.1276 15.8434C54.5847 15.5081 53.954 15.3405 53.2355 15.3405C52.517 15.3405 51.8783 15.5081 51.3195 15.8434C50.7766 16.1787 50.3455 16.6417 50.0262 17.2325C49.7228 17.8073 49.5711 18.4699 49.5711 19.2204C49.5711 19.9868 49.7228 20.6654 50.0262 21.2561C50.3455 21.8309 50.7846 22.286 51.3434 22.6213C51.9023 22.9566 52.5409 23.1243 53.2594 23.1243ZM56.6843 24.9205V21.8549L57.0915 19.0767L56.6843 16.3224V13.5442H58.8638V24.9205H56.6843Z" fill="white"/>
<path d="M41.0429 24.9261V8.78369H43.2942V24.9261H41.0429ZM35.3906 10.3644V8.30469H48.9225V10.3644H35.3906Z" fill="white"/>
<path fill-rule="evenodd" clip-rule="evenodd" d="M23.879 14.1678C23.2945 14.7524 22.3467 14.7524 21.7621 14.1678L12.0484 4.45412L5.3373 11.1652L15.051 20.879C15.6356 21.4635 15.6356 22.4113 15.051 22.9959C14.4664 23.5804 13.5187 23.5804 12.9341 22.9959L3.22038 13.2822C2.05125 12.113 2.05124 10.2175 3.22038 9.04834L9.93151 2.33721C11.1006 1.16807 12.9962 1.16807 14.1653 2.33721L23.879 12.0509C24.4636 12.6355 24.4636 13.5833 23.879 14.1678Z" fill="url(#paint0_linear_301_1000)"/>
<path fill-rule="evenodd" clip-rule="evenodd" d="M1.16002 17.8947C1.74459 17.3101 2.69236 17.3101 3.27693 17.8947L12.9906 27.6084L19.7018 20.8973L9.98806 11.1836C9.40349 10.599 9.40349 9.65124 9.98806 9.06668C10.5726 8.4821 11.5204 8.48211 12.105 9.06668L21.8187 18.7804C22.9878 19.9495 22.9878 21.8451 21.8187 23.0142L15.1076 29.7253C13.9384 30.8945 12.0429 30.8945 10.8737 29.7253L1.16002 20.0116C0.57545 19.4271 0.57545 18.4793 1.16002 17.8947Z" fill="url(#paint1_linear_301_1000)"/>
<defs>
<linearGradient id="paint0_linear_301_1000" x1="28.7566" y1="16.9285" x2="-3.68704" y2="15.9558" gradientUnits="userSpaceOnUse">
<stop offset="0.365" stop-color="#546CED"/>
<stop offset="1" stop-color="#D854ED"/>
</linearGradient>
<linearGradient id="paint1_linear_301_1000" x1="28.5292" y1="16.3037" x2="-3.31932" y2="15.5323" gradientUnits="userSpaceOnUse">
<stop offset="0.17" stop-color="#546CED"/>
<stop offset="1" stop-color="#D854ED"/>
</linearGradient>
</defs>
</svg>
