<svg width="177" height="32" viewBox="0 0 177 32" fill="none" xmlns="http://www.w3.org/2000/svg">
<path d="M170.324 24.9526L165.391 13.4805H167.786L171.45 22.4618H170.684L174.54 13.4805H176.935L171.618 24.9526H170.324ZM167.067 29.6229L170.42 22.7492L171.618 24.9526L169.462 29.6229H167.067Z" fill="#2C2C2C"/>
<path d="M161.273 24.8543V7.75391H163.429V24.8543H161.273Z" fill="#2C2C2C"/>
<path d="M153.323 25.0936C152.461 25.0936 151.679 24.918 150.976 24.5667C150.29 24.1995 149.739 23.6965 149.324 23.0578C148.909 22.4192 148.677 21.6927 148.629 20.8784V17.4535C148.677 16.6232 148.909 15.8967 149.324 15.274C149.755 14.6354 150.314 14.1404 151 13.7891C151.703 13.4219 152.477 13.2383 153.323 13.2383C154.361 13.2383 155.295 13.5017 156.126 14.0286C156.972 14.5555 157.634 15.2661 158.114 16.1602C158.593 17.0543 158.832 18.0602 158.832 19.1779C158.832 20.2956 158.593 21.3015 158.114 22.1956C157.634 23.0898 156.972 23.8003 156.126 24.3272C155.295 24.8381 154.361 25.0936 153.323 25.0936ZM152.964 23.0578C153.683 23.0578 154.313 22.8902 154.856 22.5549C155.399 22.2196 155.83 21.7645 156.15 21.1897C156.469 20.599 156.629 19.9204 156.629 19.154C156.629 18.4035 156.469 17.7329 156.15 17.1422C155.83 16.5514 155.399 16.0963 154.856 15.777C154.313 15.4417 153.691 15.274 152.988 15.274C152.27 15.274 151.639 15.4417 151.096 15.777C150.553 16.0963 150.13 16.5514 149.827 17.1422C149.523 17.7329 149.372 18.4115 149.372 19.1779C149.372 19.9284 149.515 20.599 149.803 21.1897C150.106 21.7645 150.529 22.2196 151.072 22.5549C151.631 22.8902 152.262 23.0578 152.964 23.0578ZM147.336 29.6202V13.4778H149.491V16.4716L149.084 19.2258L149.491 22.004V29.6202H147.336Z" fill="#2C2C2C"/>
<path d="M139.386 25.0936C138.524 25.0936 137.741 24.918 137.039 24.5667C136.352 24.1995 135.801 23.6965 135.386 23.0578C134.971 22.4192 134.74 21.6927 134.692 20.8784V17.4535C134.74 16.6232 134.971 15.8967 135.386 15.274C135.817 14.6354 136.376 14.1404 137.063 13.7891C137.765 13.4219 138.54 13.2383 139.386 13.2383C140.424 13.2383 141.358 13.5017 142.188 14.0286C143.034 14.5555 143.697 15.2661 144.176 16.1602C144.655 17.0543 144.895 18.0602 144.895 19.1779C144.895 20.2956 144.655 21.3015 144.176 22.1956C143.697 23.0898 143.034 23.8003 142.188 24.3272C141.358 24.8381 140.424 25.0936 139.386 25.0936ZM139.027 23.0578C139.745 23.0578 140.376 22.8902 140.919 22.5549C141.462 22.2196 141.893 21.7645 142.212 21.1897C142.531 20.599 142.691 19.9204 142.691 19.154C142.691 18.4035 142.531 17.7329 142.212 17.1422C141.893 16.5514 141.462 16.0963 140.919 15.777C140.376 15.4417 139.753 15.274 139.051 15.274C138.332 15.274 137.701 15.4417 137.159 15.777C136.616 16.0963 136.193 16.5514 135.889 17.1422C135.586 17.7329 135.434 18.4115 135.434 19.1779C135.434 19.9284 135.578 20.599 135.865 21.1897C136.169 21.7645 136.592 22.2196 137.135 22.5549C137.694 22.8902 138.324 23.0578 139.027 23.0578ZM133.398 29.6202V13.4778H135.554V16.4716L135.147 19.2258L135.554 22.004V29.6202H133.398Z" fill="#2C2C2C"/>
<path d="M125.62 25.0963C124.694 25.0963 123.855 24.8887 123.105 24.4736C122.37 24.0425 121.796 23.4517 121.381 22.7013C120.965 21.9508 120.758 21.0807 120.758 20.0907V13.4805H122.913V19.9949C122.913 20.6176 123.017 21.1605 123.225 21.6235C123.448 22.0706 123.768 22.4139 124.183 22.6534C124.598 22.8929 125.085 23.0126 125.644 23.0126C126.49 23.0126 127.153 22.7492 127.632 22.2223C128.111 21.6794 128.35 20.9369 128.35 19.9949V13.4805H130.506V20.0907C130.506 21.0807 130.298 21.9508 129.883 22.7013C129.468 23.4517 128.893 24.0425 128.158 24.4736C127.44 24.8887 126.594 25.0963 125.62 25.0963Z" fill="#2C2C2C"/>
<path d="M112.773 25.0965C111.464 25.0965 110.346 24.857 109.42 24.378C108.494 23.899 107.672 23.2044 106.953 22.2943L108.486 20.7615C109.013 21.496 109.62 22.0548 110.306 22.438C110.993 22.8053 111.839 22.9889 112.845 22.9889C113.835 22.9889 114.625 22.7733 115.216 22.3422C115.823 21.9111 116.126 21.3204 116.126 20.5699C116.126 19.9472 115.982 19.4443 115.695 19.0611C115.408 18.6779 115.016 18.3665 114.521 18.127C114.042 17.8715 113.515 17.648 112.941 17.4564C112.366 17.2488 111.791 17.0333 111.216 16.8098C110.641 16.5702 110.115 16.2828 109.636 15.9475C109.157 15.5963 108.765 15.1412 108.462 14.5824C108.175 14.0235 108.031 13.321 108.031 12.4748C108.031 11.5327 108.254 10.7344 108.701 10.0798C109.165 9.40915 109.787 8.89822 110.57 8.54695C111.368 8.17971 112.262 7.99609 113.252 7.99609C114.338 7.99609 115.312 8.21165 116.174 8.64275C117.036 9.05788 117.739 9.60874 118.282 10.2953L116.749 11.8281C116.254 11.2533 115.719 10.8222 115.144 10.5348C114.585 10.2474 113.939 10.1037 113.204 10.1037C112.31 10.1037 111.599 10.3033 111.073 10.7025C110.546 11.0857 110.282 11.6285 110.282 12.3311C110.282 12.8899 110.426 13.345 110.713 13.6962C111.017 14.0315 111.408 14.3189 111.887 14.5584C112.366 14.7979 112.893 15.0215 113.468 15.229C114.058 15.4206 114.641 15.6362 115.216 15.8757C115.791 16.1152 116.318 16.4186 116.797 16.7858C117.276 17.153 117.659 17.632 117.946 18.2228C118.25 18.7976 118.401 19.5241 118.401 20.4023C118.401 21.8712 117.89 23.0208 116.868 23.8511C115.863 24.6814 114.497 25.0965 112.773 25.0965Z" fill="#2C2C2C"/>
<path d="M95.7084 24.8494V8.70703H97.8639V24.8494H95.7084ZM92.9062 15.437V13.4731H100.666V15.437H92.9062Z" fill="#2C2C2C"/>
<path d="M89.0316 24.8541V18.2199C89.0316 17.3577 88.7602 16.6472 88.2173 16.0883C87.6745 15.5295 86.9719 15.2501 86.1097 15.2501C85.5349 15.2501 85.024 15.3778 84.5769 15.6333C84.1298 15.8888 83.7786 16.24 83.5231 16.6871C83.2676 17.1342 83.1399 17.6451 83.1399 18.2199L82.2537 17.717C82.2537 16.8548 82.4453 16.0883 82.8285 15.4177C83.2117 14.7471 83.7466 14.2202 84.4332 13.837C85.1198 13.4379 85.8942 13.2383 86.7564 13.2383C87.6186 13.2383 88.377 13.4538 89.0316 13.8849C89.7022 14.316 90.2291 14.8829 90.6123 15.5854C90.9955 16.272 91.1871 17.0064 91.1871 17.7888V24.8541H89.0316ZM80.9844 24.8541V13.4778H83.1399V24.8541H80.9844Z" fill="#2C2C2C"/>
<path d="M73.4099 25.0936C72.2763 25.0936 71.2544 24.8381 70.3443 24.3272C69.4342 23.8003 68.7157 23.0898 68.1888 22.1956C67.6619 21.3015 67.3984 20.2876 67.3984 19.154C67.3984 18.0363 67.6539 17.0304 68.1648 16.1362C68.6917 15.2421 69.3943 14.5396 70.2725 14.0286C71.1666 13.5017 72.1645 13.2383 73.2662 13.2383C74.32 13.2383 75.2461 13.4778 76.0444 13.9568C76.8587 14.4358 77.4894 15.0984 77.9365 15.9446C78.3995 16.7909 78.6311 17.7489 78.6311 18.8187C78.6311 18.9783 78.6231 19.154 78.6071 19.3456C78.5911 19.5212 78.5592 19.7288 78.5113 19.9683H68.9073V18.172H77.3617L76.5713 18.8666C76.5713 18.1002 76.4356 17.4535 76.1642 16.9266C75.8928 16.3837 75.5096 15.9686 75.0146 15.6812C74.5196 15.3778 73.9209 15.2261 73.2183 15.2261C72.4839 15.2261 71.8372 15.3858 71.2784 15.7051C70.7195 16.0245 70.2884 16.4716 69.9851 17.0464C69.6817 17.6212 69.53 18.2997 69.53 19.0821C69.53 19.8805 69.6897 20.583 70.009 21.1897C70.3283 21.7805 70.7834 22.2435 71.3742 22.5788C71.9649 22.8982 72.6435 23.0578 73.4099 23.0578C74.0486 23.0578 74.6314 22.9461 75.1583 22.7225C75.7012 22.499 76.1642 22.1637 76.5474 21.7166L77.9365 23.1297C77.3936 23.7684 76.723 24.2554 75.9247 24.5907C75.1423 24.926 74.3041 25.0936 73.4099 25.0936Z" fill="#2C2C2C"/>
<path d="M62.8281 24.8543V7.75391H64.9836V24.8543H62.8281Z" fill="#2C2C2C"/>
<path d="M53.7283 25.0936C52.6905 25.0936 51.7484 24.8381 50.9022 24.3272C50.056 23.8003 49.3853 23.0898 48.8904 22.1956C48.4114 21.3015 48.1719 20.2956 48.1719 19.1779C48.1719 18.0602 48.4114 17.0543 48.8904 16.1602C49.3853 15.2661 50.048 14.5555 50.8782 14.0286C51.7245 13.5017 52.6745 13.2383 53.7283 13.2383C54.5905 13.2383 55.3569 13.4219 56.0275 13.7891C56.7141 14.1404 57.2649 14.6354 57.6801 15.274C58.0952 15.8967 58.3267 16.6232 58.3746 17.4535V20.8784C58.3267 21.6927 58.0952 22.4192 57.6801 23.0578C57.2809 23.6965 56.738 24.1995 56.0515 24.5667C55.3809 24.918 54.6065 25.0936 53.7283 25.0936ZM54.0876 23.0578C55.1573 23.0578 56.0195 22.6986 56.6742 21.9801C57.3288 21.2456 57.6561 20.3116 57.6561 19.1779C57.6561 18.3955 57.5044 17.717 57.2011 17.1422C56.9137 16.5514 56.4985 16.0963 55.9557 15.777C55.4128 15.4417 54.7821 15.274 54.0636 15.274C53.3451 15.274 52.7064 15.4417 52.1476 15.777C51.6047 16.1123 51.1736 16.5753 50.8543 17.1661C50.5509 17.7409 50.3992 18.4035 50.3992 19.154C50.3992 19.9204 50.5509 20.599 50.8543 21.1897C51.1736 21.7645 51.6127 22.2196 52.1716 22.5549C52.7304 22.8902 53.3691 23.0578 54.0876 23.0578ZM57.5124 24.8541V21.7885L57.9196 19.0103L57.5124 16.256V13.4778H59.6919V24.8541H57.5124Z" fill="#2C2C2C"/>
<path d="M41.871 24.8597V8.71728H44.1223V24.8597H41.871ZM36.2188 10.298V8.23828H49.7506V10.298H36.2188Z" fill="#2C2C2C"/>
<path fill-rule="evenodd" clip-rule="evenodd" d="M24.7072 14.1014C24.1226 14.686 23.1748 14.686 22.5903 14.1014L12.8765 4.38772L6.16542 11.0988L15.8791 20.8126C16.4637 21.3971 16.4637 22.3449 15.8791 22.9295C15.2946 23.514 14.3468 23.514 13.7622 22.9295L4.04851 13.2158C2.87937 12.0466 2.87937 10.1511 4.04851 8.98193L10.7596 2.27081C11.9288 1.10167 13.8243 1.10166 14.9935 2.2708L24.7072 11.9845C25.2917 12.5691 25.2917 13.5169 24.7072 14.1014Z" fill="url(#paint0_linear_525_2172)"/>
<path fill-rule="evenodd" clip-rule="evenodd" d="M1.98814 17.8283C2.57271 17.2437 3.52049 17.2437 4.10506 17.8283L13.8188 27.542L20.5299 20.8308L10.8162 11.1171C10.2316 10.5326 10.2316 9.58479 10.8162 9.00022C11.4008 8.41565 12.3485 8.41565 12.9331 9.00022L22.6468 18.7139C23.8159 19.8831 23.8159 21.7786 22.6468 22.9478L15.9357 29.6589C14.7665 30.828 12.871 30.828 11.7019 29.6589L1.98814 19.9452C1.40357 19.3606 1.40357 18.4128 1.98814 17.8283Z" fill="url(#paint1_linear_525_2172)"/>
<defs>
<linearGradient id="paint0_linear_525_2172" x1="29.5847" y1="16.8621" x2="-2.85891" y2="15.8893" gradientUnits="userSpaceOnUse">
<stop offset="0.365" stop-color="#546CED"/>
<stop offset="1" stop-color="#D854ED"/>
</linearGradient>
<linearGradient id="paint1_linear_525_2172" x1="29.3573" y1="16.2372" x2="-2.4912" y2="15.4658" gradientUnits="userSpaceOnUse">
<stop offset="0.17" stop-color="#546CED"/>
<stop offset="1" stop-color="#D854ED"/>
</linearGradient>
</defs>
</svg>
