<svg width="24" height="18" viewBox="0 0 24 18" fill="none" xmlns="http://www.w3.org/2000/svg">
<path d="M2.46941 17.9247C1.88378 17.9247 1.39519 17.7289 1.00364 17.3374C0.612086 16.9458 0.415887 16.4568 0.415039 15.8703V2.18132C0.415039 1.59569 0.611238 1.1071 1.00364 0.71555C1.39603 0.323999 1.8842 0.127801 2.46814 0.126953H21.2448C21.8295 0.126953 22.3177 0.323152 22.7093 0.71555C23.1008 1.10795 23.297 1.59654 23.2979 2.18132V15.8716C23.2979 16.4564 23.1017 16.945 22.7093 17.3374C22.3169 17.7298 21.8287 17.9255 21.2448 17.9247H2.46941ZM11.8564 9.17329L1.68631 2.52329V15.8716C1.68631 16.0996 1.75962 16.2869 1.90624 16.4335C2.05286 16.5801 2.24058 16.6534 2.46941 16.6534H21.2448C21.4727 16.6534 21.66 16.5801 21.8067 16.4335C21.9533 16.2869 22.0266 16.0992 22.0266 15.8703V2.52202L11.8564 9.17329ZM11.8564 7.75456L21.635 1.39822H2.07786L11.8564 7.75456ZM1.68631 2.52329V1.39822V15.8716C1.68631 16.0996 1.75962 16.2869 1.90624 16.4335C2.05286 16.5801 2.24058 16.6534 2.46941 16.6534H1.68631V2.52329Z" fill="#546CED"/>
</svg>
