<svg width="28" height="21" viewBox="0 0 28 21" fill="none" xmlns="http://www.w3.org/2000/svg">
<path d="M20.1403 2.63732C18.4 2.06062 16.3102 1.67578 13.8595 1.67578C11.41 1.67578 9.31903 2.06062 7.57867 2.63732M20.1403 2.63732C23.5902 3.77929 25.6617 5.67495 26.4211 6.81464L23.5662 9.66956L20.1403 7.38562V2.63732ZM7.57867 2.63732C4.12879 3.77929 2.05726 5.67495 1.29785 6.81464L4.15277 9.66956L7.57867 7.38562V2.63732ZM11.5756 5.10168V8.52759M11.5756 8.52759L5.39295 14.7102C4.9646 15.1384 4.72388 15.7193 4.72375 16.3249V17.6633C4.72375 18.2691 4.96438 18.85 5.3927 19.2783C5.82102 19.7066 6.40195 19.9473 7.00769 19.9473H20.7113C21.317 19.9473 21.898 19.7066 22.3263 19.2783C22.7546 18.85 22.9952 18.2691 22.9952 17.6633V16.3249C22.9951 15.7193 22.7544 15.1384 22.326 14.7102L16.1434 8.52759M11.5756 8.52759H16.1434M16.1434 8.52759V5.10168" stroke="#546CED" stroke-width="1.4" stroke-linecap="round" stroke-linejoin="round"/>
<path d="M13.863 16.5249C15.1244 16.5249 16.147 15.5023 16.147 14.241C16.147 12.9796 15.1244 11.957 13.863 11.957C12.6017 11.957 11.5791 12.9796 11.5791 14.241C11.5791 15.5023 12.6017 16.5249 13.863 16.5249Z" stroke="#546CED" stroke-width="1.4" stroke-linecap="round" stroke-linejoin="round"/>
</svg>
