<svg width="22" height="31" viewBox="0 0 22 31" fill="none" xmlns="http://www.w3.org/2000/svg">
<path d="M18.7344 0.195312H12.7344V6.28381C14.8814 6.5198 16.9397 7.27057 18.7344 8.47231V0.195312ZM9.73438 0.195312H3.73438V8.47231C5.5291 7.27057 7.58739 6.5198 9.73438 6.28381V0.195312ZM11.2344 30.1953C14.0191 30.1953 16.6899 29.0891 18.659 27.1199C20.6281 25.1508 21.7344 22.4801 21.7344 19.6953C21.7344 16.9105 20.6281 14.2398 18.659 12.2707C16.6899 10.3016 14.0191 9.19531 11.2344 9.19531C8.4496 9.19531 5.77889 10.3016 3.80975 12.2707C1.84062 14.2398 0.734375 16.9105 0.734375 19.6953C0.734375 22.4801 1.84062 25.1508 3.80975 27.1199C5.77889 29.0891 8.4496 30.1953 11.2344 30.1953ZM9.39687 17.4168L11.2344 13.6953L13.0719 17.4168L17.1789 18.0123L14.2074 20.9103L14.9094 25.0008L11.2344 23.0703L7.56087 25.0008L8.26288 20.9103L5.29138 18.0123L9.39687 17.4168Z" fill="#546CED"/>
</svg>
