<svg width="27" height="26" viewBox="0 0 27 26" fill="none" xmlns="http://www.w3.org/2000/svg">
<path fill-rule="evenodd" clip-rule="evenodd" d="M13.7344 23.7956V16.5991H15.5915V23.7956H24.8772V7.60362H26.7344V23.7956C26.7344 24.2727 26.5387 24.7303 26.1904 25.0677C25.8421 25.4051 25.3698 25.5947 24.8772 25.5947H2.59152C2.09897 25.5947 1.6266 25.4051 1.27832 25.0677C0.930038 24.7303 0.734375 24.2727 0.734375 23.7956V20.1974H2.59152V23.7956H13.7344ZM22.7471 5.54184L17.1775 10.9392C17.4754 11.5399 17.5333 12.2262 17.34 12.8659C17.1468 13.5055 16.716 14.0533 16.1307 14.4036C15.5454 14.7539 14.847 14.882 14.17 14.7632C13.493 14.6444 12.8854 14.2871 12.4641 13.7602L7.4238 15.3866L6.3058 15.7482C6.29409 16.3847 6.05043 16.9968 5.6179 17.4761C5.18538 17.9555 4.59185 18.2712 3.94222 18.3676C3.29259 18.464 2.62871 18.3348 2.06794 18.0028C1.50716 17.6708 1.0856 17.1574 0.877772 16.5534C0.669947 15.9495 0.689244 15.2937 0.93225 14.7022C1.17526 14.1107 1.62632 13.6214 2.20572 13.3209C2.78511 13.0204 3.45551 12.928 4.09841 13.0601C4.74131 13.1922 5.31531 13.5402 5.71895 14.0426L11.8772 12.0528C11.8855 11.6011 12.0107 11.1586 12.2414 10.766C12.472 10.3733 12.8008 10.0431 13.1974 9.80548C13.5941 9.56787 14.0459 9.43054 14.5116 9.40606C14.9773 9.38159 15.4418 9.47076 15.8627 9.66539L21.4341 4.26807C21.1508 3.69362 21.0864 3.04067 21.252 2.42461C21.4177 1.80856 21.8028 1.26907 22.3394 0.901509C22.8759 0.533946 23.5293 0.361972 24.1841 0.415985C24.8389 0.469997 25.4529 0.746519 25.9176 1.19667C26.3822 1.64683 26.6677 2.24163 26.7234 2.87595C26.7792 3.51027 26.6017 4.14326 26.2222 4.66305C25.8428 5.18283 25.2859 5.55594 24.65 5.71642C24.0141 5.8769 23.3401 5.81443 22.7471 5.54004" fill="#546CED"/>
</svg>
