<svg width="31" height="24" viewBox="0 0 31 24" fill="none" xmlns="http://www.w3.org/2000/svg">
<path d="M29.6629 0.40625H1.8058C1.21317 0.40625 0.734375 0.885045 0.734375 1.47768V6.83482H30.7344V1.47768C30.7344 0.885045 30.2556 0.40625 29.6629 0.40625ZM0.734375 22.9062C0.734375 23.4989 1.21317 23.9777 1.8058 23.9777H29.6629C30.2556 23.9777 30.7344 23.4989 30.7344 22.9062V9.78125H0.734375V22.9062ZM20.1205 16.7455C20.1205 16.5982 20.2411 16.4777 20.3884 16.4777H25.9129C26.0603 16.4777 26.1808 16.5982 26.1808 16.7455V19.1562C26.1808 19.3036 26.0603 19.4241 25.9129 19.4241H20.3884C20.2411 19.4241 20.1205 19.3036 20.1205 19.1562V16.7455Z" fill="#546CED"/>
</svg>
