<svg width="31" height="24" viewBox="0 0 31 24" fill="none" xmlns="http://www.w3.org/2000/svg">
<path d="M3.42771 23.4704C2.65993 23.4704 2.01938 23.2197 1.50604 22.7183C0.992708 22.2169 0.735486 21.5907 0.734375 20.8397V3.31039C0.734375 2.56046 0.991597 1.9348 1.50604 1.43341C2.02049 0.932013 2.66049 0.680773 3.42604 0.679688H28.0427C28.8094 0.679688 29.4494 0.930928 29.9627 1.43341C30.476 1.93589 30.7333 2.56155 30.7344 3.31039V20.8413C30.7344 21.5902 30.4772 22.2158 29.9627 22.7183C29.4483 23.2208 28.8083 23.4715 28.0427 23.4704H3.42771ZM2.40104 5.56341H29.0677V3.31039C29.0677 3.05969 28.961 2.82961 28.7477 2.62015C28.5344 2.4107 28.2994 2.30651 28.0427 2.30759H3.42604C3.17049 2.30759 2.93549 2.41178 2.72104 2.62015C2.5066 2.82852 2.39993 3.0586 2.40104 3.31039V5.56341ZM13.9844 18.2936L22.2477 10.2209L21.0477 9.05039L13.9844 15.9511L10.421 12.469L9.22104 13.6411L13.9844 18.2936Z" fill="#546CED"/>
</svg>
